<svg xmlns="http://www.w3.org/2000/svg" width="113" height="151" viewBox="0 0 113 151" version="1.1"><path d="" stroke="none" fill="#dc341c" fill-rule="evenodd"/><path d="M 52.485 4.750 C 53.928 10.400, 54.098 11.618, 54.128 16.500 C 54.145 19.250, 53.883 25.212, 53.545 29.750 C 53.208 34.288, 53.195 38, 53.517 38 C 54.474 38, 57.110 30.988, 56.516 30.025 C 56.214 29.537, 56.425 28.856, 56.984 28.510 C 57.543 28.165, 58.029 26.446, 58.063 24.691 C 58.120 21.825, 58.217 21.725, 59.014 23.702 C 59.856 25.795, 59.798 27.421, 58.437 39.741 C 58.119 42.624, 57.852 45.324, 57.844 45.741 C 57.836 46.159, 57.445 46.964, 56.974 47.531 C 56.504 48.098, 55.904 49.745, 55.642 51.190 C 55.380 52.635, 54.401 54.984, 53.468 56.409 C 52.534 57.834, 52.010 59, 52.304 59 C 54.047 59, 42.080 79.532, 40.171 79.817 C 38.113 80.123, 38.093 80.022, 39.537 76.567 C 40.356 74.605, 40.764 73, 40.442 73 C 40.120 73, 40.564 72.293, 41.429 71.429 C 42.293 70.564, 43.056 69.214, 43.125 68.429 C 43.289 66.559, 43.442 66.046, 44.874 62.579 C 46.921 57.622, 45.720 56.438, 42.898 60.632 C 41.467 62.759, 37.963 67.987, 35.112 72.250 C 29.400 80.789, 25.467 83.157, 29.300 75.750 C 30.510 73.412, 31.837 71.350, 32.250 71.167 C 32.663 70.983, 33 70.026, 33 69.039 C 33 68.052, 33.670 66.689, 34.489 66.009 C 35.308 65.329, 35.731 64.374, 35.430 63.887 C 35.129 63.399, 35.272 63, 35.749 63 C 36.646 63, 40.578 55.003, 40.250 53.846 C 40.147 53.486, 40.725 52.644, 41.532 51.973 C 42.339 51.303, 43 50, 43 49.078 C 43 48.155, 43.418 46.972, 43.930 46.450 C 46.704 43.616, 53.004 21, 51.020 21 C 50.143 21, 48.585 24.039, 48.841 25.250 C 48.929 25.662, 48.550 26, 48 26 C 47.450 26, 47 26.504, 47 27.119 C 47 27.735, 45.448 30.793, 43.551 33.916 C 41.654 37.038, 35.914 47.897, 30.795 58.047 C 20.855 77.752, 20.904 77.650, 20.254 80.135 C 20.019 81.034, 17.841 82.589, 15.413 83.590 C 12.986 84.591, 11 85.737, 11 86.138 C 11 86.538, 10.121 87.144, 9.047 87.485 C 6.909 88.164, -0.583 97.751, 0.320 98.653 C 0.627 98.961, 1.970 98.152, 3.303 96.856 C 14.258 86.208, 29.565 83.501, 53.784 87.926 C 56.378 88.400, 61.162 88.836, 64.416 88.893 C 70.073 88.994, 71.893 89.441, 70.858 90.476 C 70.596 90.737, 61.978 90.994, 51.707 91.046 C 41.435 91.098, 32.805 91.506, 32.528 91.954 C 31.818 93.104, 38.824 95.578, 45.500 96.536 C 46.600 96.693, 49.323 97.244, 51.552 97.760 C 53.780 98.276, 59.743 98.559, 64.802 98.388 C 73.759 98.086, 76.632 99.091, 71.861 100.856 C 69.084 101.883, 55.047 101.188, 43.500 99.451 C 29.967 97.416, 13.364 98.597, 11.617 101.720 C 11.069 102.699, 10.782 103.500, 10.979 103.500 C 11.177 103.500, 10.787 104.530, 10.113 105.789 C 9.439 107.048, 8.682 110.798, 8.431 114.123 C 7.837 121.977, 9.573 120.465, 12.879 110.250 C 14.169 106.262, 15.624 103, 16.112 103 C 17.419 103, 17.214 104.381, 15.119 109.713 C 14.084 112.346, 12.959 116.412, 12.619 118.750 C 12.278 121.088, 11.743 124.745, 11.428 126.877 C 10.041 136.288, 13.935 141.967, 15.799 133.250 C 16.475 130.088, 17.173 126.825, 17.350 126 C 17.527 125.175, 18.458 122.700, 19.419 120.500 C 23.251 111.732, 24.935 106.999, 24.235 106.970 C 23.831 106.953, 24.321 106.462, 25.325 105.878 C 28.208 104.202, 28.087 105.047, 24.309 112.977 C 22.357 117.076, 20.657 120.895, 20.531 121.465 C 20.405 122.034, 20.047 123.175, 19.735 124 C 19.422 124.825, 18.834 126.850, 18.427 128.500 C 17.675 131.550, 17.566 132.073, 16.527 137.672 C 15.891 141.099, 17.631 143.319, 18.598 140.313 C 18.919 139.316, 20.582 135.125, 22.293 131 C 25.246 123.885, 26.288 121.788, 31 113.470 C 32.100 111.528, 33 109.350, 33 108.630 C 33 106.367, 37.262 105.274, 44 105.809 C 57.871 106.909, 67.672 106.316, 71.756 104.131 C 73.548 103.172, 73.926 103.546, 75.448 107.781 C 78.432 116.082, 80.280 120, 81.211 120 C 81.710 120, 81.890 120.369, 81.611 120.821 C 79.962 123.488, 93.025 138.442, 100.204 142.104 C 106.198 145.162, 106.796 143.887, 101.354 139.654 C 93.016 133.168, 81.648 112.286, 79.495 99.500 C 79.309 98.400, 78.864 96.375, 78.504 95 C 78.145 93.625, 77.252 89.350, 76.519 85.500 C 75.787 81.650, 74.733 76.475, 74.178 74 C 73.623 71.525, 72.902 67.250, 72.576 64.500 C 71.805 57.995, 69.991 46.181, 69.274 43 C 68.964 41.625, 68.581 39.825, 68.423 39 C 67.956 36.562, 67.165 33.500, 67.002 33.500 C 66.919 33.500, 66.652 32.375, 66.408 31 C 65.065 23.431, 57.663 6, 55.792 6 C 55.173 6, 54.963 5.704, 55.325 5.342 C 56.115 4.552, 54.163 2, 52.769 2 C 52.190 2, 52.073 3.135, 52.485 4.750 M 58 4.500 C 58 5.325, 58.477 6, 59.059 6 C 59.641 6, 59.862 6.414, 59.550 6.919 C 59.237 7.425, 59.693 8.550, 60.562 9.419 C 61.432 10.289, 61.878 11, 61.555 11 C 61.231 11, 62.099 13.235, 63.483 15.967 C 64.867 18.698, 66 21.443, 66 22.066 C 66 22.688, 66.642 24.616, 67.426 26.349 C 69.153 30.166, 72.909 44.662, 74.336 53.018 C 74.478 53.852, 74.877 54.992, 75.222 55.550 C 75.567 56.108, 76.082 59.025, 76.367 62.032 C 76.966 68.349, 79.277 78.700, 81.489 84.970 C 82.332 87.358, 82.807 89.526, 82.546 89.787 C 82.284 90.049, 82.520 91.104, 83.070 92.131 C 87.445 100.305, 86.234 77.234, 80.912 51 C 79.852 45.775, 78.721 40.150, 78.400 38.500 C 77.557 34.171, 71.850 19.560, 70.848 19.167 C 70.382 18.983, 70 18.180, 70 17.381 C 70 15.343, 67.200 11.150, 62.900 6.750 C 58.887 2.643, 58 2.236, 58 4.500 M 74.982 19.815 C 75.424 21.292, 76.230 23.625, 76.773 25 C 77.316 26.375, 77.805 27.842, 77.860 28.260 C 77.915 28.679, 78.626 30.309, 79.440 31.884 C 80.254 33.458, 80.668 34.999, 80.360 35.307 C 80.052 35.615, 80.161 36.451, 80.603 37.166 C 81.044 37.880, 81.496 39.148, 81.606 39.982 C 82.435 46.233, 83.353 50.743, 84.078 52.119 C 84.546 53.009, 84.681 53.986, 84.377 54.289 C 84.074 54.593, 84.319 57.240, 84.922 60.171 C 85.525 63.102, 86.254 68.030, 86.542 71.122 C 86.830 74.215, 87.228 77.590, 87.427 78.622 C 87.626 79.655, 88.320 84.100, 88.970 88.500 C 89.621 92.900, 90.820 98.843, 91.635 101.707 C 92.450 104.570, 93.319 108.029, 93.566 109.392 C 94.203 112.902, 97.863 121.190, 99.647 123.162 C 100.474 124.077, 101.269 125.627, 101.413 126.608 C 101.557 127.589, 102.218 128.573, 102.881 128.794 C 104.058 129.186, 103.568 124.968, 102.150 122.502 C 101.834 121.954, 101.476 120.188, 101.353 118.578 C 101.230 116.969, 100.813 114.492, 100.426 113.076 C 100.040 111.659, 99.585 109.375, 99.415 108 C 99.245 106.625, 98.859 104.150, 98.558 102.500 C 98.257 100.850, 97.766 97.409, 97.468 94.853 C 97.169 92.297, 96.699 89.147, 96.423 87.853 C 96.147 86.559, 95.683 83.025, 95.391 80 C 95.099 76.975, 94.396 72.700, 93.829 70.500 C 93.261 68.300, 92.589 64.700, 92.335 62.500 C 92.081 60.300, 91.608 57.825, 91.283 57 C 90.958 56.175, 90.524 54.375, 90.318 53 C 90.112 51.625, 89.404 49.150, 88.744 47.500 C 88.084 45.850, 87.528 44.050, 87.508 43.500 C 87.410 40.767, 81.064 24, 80.128 24 C 79.776 24, 78.909 22.691, 78.200 21.090 C 76.447 17.130, 73.871 16.109, 74.982 19.815 M 62.926 47.083 C 62.148 51.443, 61.788 52.612, 60.971 53.429 C 60.437 53.963, 60 55.006, 60 55.746 C 60 56.868, 53.126 72.211, 49.923 78.236 C 49.415 79.191, 49 80.146, 49 80.358 C 49 80.771, 59.039 82.400, 60.192 82.174 C 60.572 82.100, 62.935 82.422, 65.442 82.890 C 67.949 83.359, 70 83.527, 70 83.265 C 70 83.003, 69.300 80.086, 68.444 76.784 C 67.588 73.481, 67.122 70.544, 67.409 70.258 C 67.695 69.971, 67.549 69.009, 67.083 68.119 C 66.265 66.554, 65.162 59.606, 64.470 51.651 C 64.193 48.465, 63.202 45.534, 62.926 47.083" stroke="none" fill="#e4341c" fill-rule="evenodd"/></svg>