<?xml version="1.0" standalone="no"?>
<!DOCTYPE svg PUBLIC "-//W3C//DTD SVG 20010904//EN"
 "http://www.w3.org/TR/2001/REC-SVG-20010904/DTD/svg10.dtd">
<svg version="1.0" xmlns="http://www.w3.org/2000/svg"
 width="512.000000pt" height="512.000000pt" viewBox="0 0 512.000000 512.000000"
 preserveAspectRatio="xMidYMid meet">

<g transform="translate(0.000000,512.000000) scale(0.100000,-0.100000)"
fill="#000000" stroke="none">
<path d="M2533 3256 c22 -57 28 -120 21 -223 -4 -62 -4 -113 -1 -113 3 0 14
37 24 82 13 64 19 77 24 58 27 -97 -6 -242 -98 -432 -57 -119 -70 -138 -90
-138 -13 0 -23 3 -23 7 0 4 18 51 41 106 22 54 38 101 36 104 -3 2 -38 -45
-79 -106 -47 -71 -79 -111 -91 -111 -14 0 1 35 72 178 80 160 151 344 151 390
-1 27 -89 -132 -210 -373 -101 -205 -112 -222 -143 -233 -43 -16 -116 -79
-141 -123 l-20 -34 39 34 c97 84 236 121 389 102 50 -7 134 -16 186 -22 155
-18 130 -29 -66 -30 -194 0 -248 -9 -179 -27 103 -28 148 -35 254 -41 74 -4
116 -10 118 -18 7 -20 -77 -26 -188 -13 -154 17 -349 23 -389 13 -44 -12 -61
-45 -67 -132 l-4 -66 24 65 c37 98 38 100 54 100 11 0 13 -5 8 -17 -41 -99
-66 -249 -51 -309 7 -25 13 -11 51 102 45 138 79 214 95 214 16 0 12 -14 -30
-109 -44 -101 -70 -192 -70 -242 1 -30 5 -24 30 41 17 41 56 125 88 185 l59
110 149 -3 c113 -3 161 0 199 12 27 8 50 14 51 13 1 -1 11 -31 23 -67 45 -137
144 -268 241 -318 l45 -23 -38 32 c-52 43 -120 142 -162 233 -50 107 -80 228
-130 528 -24 145 -56 303 -70 353 -31 105 -93 244 -120 265 -17 14 -18 13 -12
-4z m151 -651 c13 -82 24 -150 23 -151 -6 -4 -197 23 -203 29 -4 3 19 62 49
129 31 68 64 148 74 178 l17 55 8 -45 c4 -25 19 -112 32 -195z"/>
<path d="M2639 3148 c58 -123 89 -231 136 -475 35 -179 70 -313 82 -313 13 0
-7 232 -31 365 -31 168 -66 286 -112 378 -33 64 -97 147 -115 147 -4 0 14 -46
40 -102z"/>
<path d="M2765 3093 c50 -124 83 -269 115 -513 25 -192 54 -332 87 -424 28
-78 62 -150 68 -144 2 2 -2 31 -10 63 -7 33 -30 168 -49 300 -57 375 -109 580
-178 688 -30 47 -46 62 -33 30z"/>
<path d="M2103 2335 c-33 -15 -60 -36 -73 -57 -27 -45 -25 -54 8 -28 15 13 59
42 97 66 55 35 65 44 45 44 -14 0 -49 -11 -77 -25z"/>
<path d="M2915 2126 c9 -52 46 -134 80 -174 24 -28 91 -72 111 -72 3 0 -20 28
-53 63 -32 35 -78 99 -101 143 -38 70 -42 75 -37 40z"/>
</g>
</svg>
